<svg width="380" height="61" viewBox="0 0 380 61" fill="none" xmlns="http://www.w3.org/2000/svg">
<path d="M1 21.0223C1 10.1684 9.79878 1.36963 20.6526 1.36963V1.36963V29.8142H1V21.0223Z" fill="#278EFF" stroke="#278EFF" stroke-width="0.805851"/>
<rect x="1" y="29.8142" width="19.6526" height="2.12144" fill="#278EFF" stroke="#278EFF" stroke-width="0.805851"/>
<path d="M1 40.7277C1 51.5816 9.79878 60.3804 20.6526 60.3804V60.3804V31.9358H1V40.7277Z" fill="#278EFF" stroke="#278EFF" stroke-width="0.805851"/>
<rect x="20.6526" y="1.36963" width="329.42" height="59.0106" fill="#278EFF"/>
<rect x="20.6526" y="1.36963" width="329.42" height="59.0106" stroke="#278EFF" stroke-width="0.805851"/>
<path d="M22.7003 40.875V26.8085H24.989V28.6689H25.0559C25.5779 27.7722 26.8761 26.581 29.1648 26.581C32.0557 26.581 34.2105 28.428 34.2105 31.8542V40.875H31.9085V32.2424C31.9085 29.8734 30.5165 28.6689 28.4688 28.6689C26.0463 28.6689 25.0024 30.382 25.0024 32.3093V40.875H22.7003ZM41.7424 41.1025C39.0255 41.1025 37.1517 39.4162 37.1517 36.8331C37.1517 34.3704 38.8649 32.8179 42.0904 32.8045H45.7977V31.3724C45.7977 29.5254 44.727 28.5083 42.8265 28.5083C41.0197 28.5083 39.9891 29.4318 39.8553 30.8371H37.6871C37.8343 28.3744 39.5073 26.581 42.9068 26.581C45.9048 26.581 48.0864 28.2138 48.0864 31.1717V40.875H45.878V39.1217H45.8111C45.1018 40.2593 43.8169 41.1025 41.7424 41.1025ZM42.3581 39.1886C44.3255 39.1886 45.7977 37.9573 45.7977 36.204V34.5712H42.2644C40.3371 34.5712 39.5073 35.4813 39.5073 36.7528C39.5073 38.4124 40.8858 39.1886 42.3581 39.1886ZM51.9645 40.875V21.6423H54.2665V28.6689H54.3335C54.8554 27.7722 56.1537 26.581 58.4289 26.581C61.3333 26.581 63.4747 28.428 63.4747 31.8542V40.875H61.1726V32.2424C61.1726 29.8734 59.7941 28.6689 57.733 28.6689C55.3105 28.6689 54.2665 30.382 54.2665 32.3093V40.875H51.9645ZM79.1007 41.1025C77.0931 41.1025 75.7279 40.2058 74.8981 38.7603H74.8312V40.875H72.6228V21.6423H74.9249V28.7358H74.9918C75.7145 27.5179 77.3474 26.5944 79.1274 26.5944C82.4065 26.5944 84.7085 28.9232 84.7085 33.1525V34.5176C84.7085 38.5864 82.4868 41.1025 79.1007 41.1025ZM78.8196 39.0949C80.9343 39.0949 82.3931 37.4086 82.3931 34.3972V33.2863C82.3931 30.2482 80.9209 28.602 78.8196 28.602C76.3703 28.602 74.8981 30.2348 74.8981 33.2863V34.3704C74.8981 37.422 76.357 39.0949 78.8196 39.0949ZM88.1048 40.875V26.8085H90.4068V28.535H90.4738C90.8887 27.6918 91.946 26.5944 93.9402 26.5944C94.2346 26.5944 94.5291 26.6211 94.8102 26.6613V28.7626C94.5692 28.7224 94.1142 28.709 93.6859 28.709C91.1965 28.709 90.4202 30.2616 90.4202 32.1621V40.875H88.1048ZM102.717 26.581C106.652 26.581 108.74 29.4318 108.74 33.1926V34.4507C108.74 38.2651 106.665 41.1025 102.717 41.1025C98.7686 41.1025 96.6673 38.2651 96.6673 34.4507V33.1926C96.6673 29.4318 98.782 26.581 102.717 26.581ZM102.717 28.5484C100.294 28.5484 98.9693 30.3954 98.9693 33.2729V34.3704C98.9693 37.2346 100.294 39.1083 102.717 39.1083C105.126 39.1083 106.438 37.248 106.438 34.3704V33.2729C106.438 30.3954 105.126 28.5484 102.717 28.5484ZM117.326 23.4224C117.326 22.5926 117.981 21.9502 118.798 21.9502C119.614 21.9502 120.283 22.5926 120.283 23.4224C120.283 24.2388 119.614 24.8812 118.798 24.8812C117.981 24.8812 117.326 24.2388 117.326 23.4224ZM117.647 40.875V26.8085H119.949V40.875H117.647ZM125.219 29.0035H123.425L124.55 22.606H126.972L125.219 29.0035ZM128.99 40.875V26.8085H131.279V28.535H131.399C131.854 27.5714 133.099 26.581 134.959 26.581C137.154 26.581 138.466 27.4643 139.015 28.8429H139.122C139.657 27.6383 141.143 26.581 143.431 26.581C146.402 26.581 148.156 28.4146 148.156 31.3055V40.875H145.867V31.7739C145.867 29.9805 144.837 28.6555 142.829 28.6555C140.835 28.6555 139.724 30.034 139.724 31.9881V40.875H137.435V31.9881C137.435 29.8333 136.284 28.6555 134.37 28.6555C132.644 28.6555 131.292 29.8333 131.292 31.9613V40.875H128.99ZM156.835 30.8371C156.835 27.8658 159.338 26.581 162.042 26.581C165.348 26.581 167.047 28.4681 167.047 30.7969H164.906C164.826 29.7262 164.156 28.4681 161.962 28.4681C160.289 28.4681 159.084 29.2042 159.084 30.5962C159.084 32.1755 160.944 32.5101 162.55 32.8045C165.187 33.2729 167.409 33.9823 167.409 36.726C167.409 39.5232 165.147 41.1025 161.841 41.1025C158.749 41.1025 156.595 39.6169 156.595 37.0874H158.843C159.044 38.3722 160.141 39.2154 162.015 39.2154C164.17 39.2154 165.147 38.1982 165.147 37.007C165.147 35.4144 163.581 35.1065 161.614 34.7184C158.99 34.183 156.835 33.38 156.835 30.8371ZM176.038 26.581C179.973 26.581 182.061 29.4318 182.061 33.1926V34.4507C182.061 38.2651 179.986 41.1025 176.038 41.1025C172.09 41.1025 169.989 38.2651 169.989 34.4507V33.1926C169.989 29.4318 172.103 26.581 176.038 26.581ZM176.038 28.5484C173.616 28.5484 172.291 30.3954 172.291 33.2729V34.3704C172.291 37.2346 173.616 39.1083 176.038 39.1083C178.447 39.1083 179.759 37.248 179.759 34.3704V33.2729C179.759 30.3954 178.447 28.5484 176.038 28.5484ZM190.971 26.581C194.906 26.581 196.994 29.4318 196.994 33.1926V34.4507C196.994 38.2651 194.92 41.1025 190.971 41.1025C187.023 41.1025 184.922 38.2651 184.922 34.4507V33.1926C184.922 29.4318 187.037 26.581 190.971 26.581ZM190.971 28.5484C188.549 28.5484 187.224 30.3954 187.224 33.2729V34.3704C187.224 37.2346 188.549 39.1083 190.971 39.1083C193.381 39.1083 194.692 37.248 194.692 34.3704V33.2729C194.692 30.3954 193.381 28.5484 190.971 28.5484ZM206.651 40.875V28.7358H204.75V26.8085H206.651V25.4032C206.651 22.713 208.003 21.4683 210.894 21.4683C211.362 21.4683 211.683 21.5085 211.924 21.5486V23.4358C211.723 23.409 211.549 23.3822 211.201 23.3822C209.676 23.3822 208.94 23.8774 208.94 25.5906V26.8085H211.71V28.7358H208.953V40.875H206.651ZM219.67 30.8906H218.104L218.265 27.6517L215.548 29.4451L214.745 28.0398L217.596 26.5944L214.745 25.1355L215.548 23.7168L218.265 25.5504L218.091 22.2714H219.684L219.496 25.537L222.213 23.7168L223.016 25.1221L220.152 26.5944L223.016 28.0398L222.213 29.4451L219.496 27.6517L219.67 30.8906ZM231.98 30.8906H230.414L230.575 27.6517L227.858 29.4451L227.055 28.0398L229.906 26.5944L227.055 25.1355L227.858 23.7168L230.575 25.5504L230.401 22.2714H231.994L231.806 25.537L234.523 23.7168L235.326 25.1221L232.462 26.5944L235.326 28.0398L234.523 29.4451L231.806 27.6517L231.98 30.8906ZM241.667 35.8025V40.875H239.365V21.6423H241.667V33.032H241.761L247.369 26.8085H250.219L244.665 32.925L250.567 40.875H247.743L242.965 34.3838L241.667 35.8025ZM252.384 23.4224C252.384 22.5926 253.04 21.9502 253.857 21.9502C254.673 21.9502 255.342 22.5926 255.342 23.4224C255.342 24.2388 254.673 24.8812 253.857 24.8812C253.04 24.8812 252.384 24.2388 252.384 23.4224ZM252.706 40.875V26.8085H255.008V40.875H252.706ZM259.127 40.875V26.8085H261.415V28.6689H261.482C262.004 27.7722 263.302 26.581 265.591 26.581C268.482 26.581 270.637 28.428 270.637 31.8542V40.875H268.335V32.2424C268.335 29.8734 266.943 28.6689 264.895 28.6689C262.473 28.6689 261.429 30.382 261.429 32.3093V40.875H259.127ZM279.868 44.1005C282.09 44.1005 283.536 42.8023 283.536 40.5939V38.5194H283.469C282.907 39.7374 281.367 40.7412 279.454 40.7412C276.174 40.7412 273.832 38.4391 273.832 34.2232V33.0588C273.832 28.9232 276.148 26.5944 279.454 26.5944C281.367 26.5944 282.893 27.5982 283.549 28.7893H283.616V26.8085H285.838V40.6207C285.838 44.221 283.04 46.0278 279.855 46.0278C276.282 46.0278 274.461 44.2611 274.14 41.9189H276.496C276.75 43.0566 277.941 44.1005 279.868 44.1005ZM279.895 28.5752C277.526 28.5752 276.134 30.2616 276.134 33.2328V34.1027C276.134 37.0204 277.526 38.7737 279.895 38.7737C282.197 38.7737 283.536 37.007 283.536 34.1027V33.2328C283.536 30.382 282.117 28.5752 279.895 28.5752ZM296.083 26.8085V23.3019H298.372V26.8085H301.156V28.7358H298.372V36.9669C298.372 38.6533 298.934 39.0816 300.661 39.0816C300.888 39.0816 301.062 39.0816 301.249 39.0548V40.9018C301.049 40.9419 300.567 40.9955 300.085 40.9955C296.752 40.9955 296.07 39.7106 296.07 36.9401V28.7358H294.183V26.8085H296.083ZM304.378 23.4224C304.378 22.5926 305.034 21.9502 305.85 21.9502C306.667 21.9502 307.336 22.5926 307.336 23.4224C307.336 24.2388 306.667 24.8812 305.85 24.8812C305.034 24.8812 304.378 24.2388 304.378 23.4224ZM304.699 40.875V26.8085H307.001V40.875H304.699ZM311.12 40.875V26.8085H313.422V28.535H313.489C313.904 27.6918 314.962 26.5944 316.956 26.5944C317.25 26.5944 317.545 26.6211 317.826 26.6613V28.7626C317.585 28.7224 317.13 28.709 316.701 28.709C314.212 28.709 313.436 30.2616 313.436 32.1621V40.875H311.12ZM325.585 41.1025C321.918 41.1025 319.683 38.5194 319.683 34.5176V32.9383C319.683 29.231 321.784 26.581 325.478 26.581C329.159 26.581 331.273 29.231 331.273 33.0989V34.4106H321.985V34.6649C321.985 37.3416 323.35 39.1752 325.639 39.1752C327.272 39.1752 328.342 38.3588 328.797 37.0472H331.086C330.551 39.376 328.69 41.1025 325.585 41.1025ZM321.985 32.5502H328.971V32.5101C328.971 30.2749 327.593 28.5083 325.491 28.5083C323.35 28.5083 321.985 30.2883 321.985 32.5101V32.5502ZM339.675 26.5944C341.536 26.5944 343.008 27.5179 343.717 28.7626H343.784V21.6423H346.086V40.875H343.878V38.7603H343.824C343.035 40.2058 341.562 41.0891 339.675 41.0891C336.008 41.0891 334.054 38.399 334.054 34.4775V33.206C334.054 29.3782 336.128 26.5944 339.675 26.5944ZM339.996 28.602C337.909 28.602 336.369 30.1545 336.369 33.2863V34.3972C336.369 37.529 337.909 39.0816 340.037 39.0816C342.392 39.0816 343.824 37.3952 343.824 34.4106V33.2863C343.824 30.4489 342.365 28.602 339.996 28.602Z" fill="white"/>
<path d="M369.725 21.0223C369.725 10.1684 360.926 1.36963 350.072 1.36963V1.36963V29.8142H369.725V21.0223Z" fill="#278EFF" stroke="#278EFF" stroke-width="0.805851"/>
<rect width="19.6526" height="2.1217" transform="matrix(-1 0 0 1 369.725 29.8145)" fill="#278EFF" stroke="#278EFF" stroke-width="0.805851"/>
<path d="M350.072 31.936V60.3804C354.832 60.3804 359.196 58.6879 362.597 55.8726C365.989 58.1326 371.428 60.2824 378 59.0874C376.19 58.3115 369.208 53.6572 369.467 44.3481C369.436 44.3904 369.401 44.4298 369.368 44.4702C369.602 43.2587 369.726 42.0077 369.726 40.728V31.936H350.072Z" fill="#278EFF"/>
<path d="M350.072 31.936H349.669V31.5331H350.072V31.936ZM350.072 60.3804V60.7833H349.669V60.3804H350.072ZM362.597 55.8726L362.34 55.5622L362.571 55.371L362.82 55.5372L362.597 55.8726ZM378 59.0874L378.159 58.7171L379.389 59.2444L378.072 59.4838L378 59.0874ZM369.467 44.3481L369.141 44.1112L369.906 43.0596L369.87 44.3593L369.467 44.3481ZM369.368 44.4702L369.679 44.7265L368.973 44.3939L369.368 44.4702ZM369.726 31.936V31.5331H370.129V31.936H369.726ZM350.072 31.936H350.475V60.3804H350.072H349.669V31.936H350.072ZM350.072 60.3804V59.9774C354.735 59.9774 359.009 58.32 362.34 55.5622L362.597 55.8726L362.854 56.1829C359.383 59.0559 354.929 60.7833 350.072 60.7833V60.3804ZM362.597 55.8726L362.82 55.5372C366.15 57.7558 371.484 59.8626 377.928 58.691L378 59.0874L378.072 59.4838C371.371 60.7021 365.828 58.5095 362.373 56.2079L362.597 55.8726ZM378 59.0874L377.841 59.4577C376.874 59.0434 374.623 57.6447 372.643 55.1694C370.655 52.6842 368.932 49.1027 369.064 44.337L369.467 44.3481L369.87 44.3593C369.743 48.9026 371.382 52.3028 373.272 54.666C375.171 57.0391 377.315 58.3556 378.159 58.7171L378 59.0874ZM369.467 44.3481L369.793 44.5851C369.752 44.6405 369.702 44.6991 369.679 44.7265L369.368 44.4702L369.057 44.214C369.101 44.1606 369.12 44.1403 369.141 44.1112L369.467 44.3481ZM369.368 44.4702L368.973 44.3939C369.201 43.2071 369.323 41.9817 369.323 40.728H369.726H370.129C370.129 42.0338 370.002 43.3103 369.764 44.5465L369.368 44.4702ZM369.726 40.728H369.323V31.936H369.726H370.129V40.728H369.726ZM369.726 31.936V32.339H350.072V31.936V31.5331H369.726V31.936Z" fill="#278EFF"/>
</svg>
