<svg width="164" height="61" viewBox="0 0 164 61" fill="none" xmlns="http://www.w3.org/2000/svg">
<path d="M1 21.0223C1 10.1684 9.79878 1.36963 20.6526 1.36963V1.36963V29.8142H1V21.0223Z" fill="#278EFF" stroke="#278EFF" stroke-width="0.805851"/>
<rect x="1" y="29.8143" width="19.6526" height="2.12144" fill="#278EFF" stroke="#278EFF" stroke-width="0.805851"/>
<path d="M1 40.7276C1 51.5815 9.79878 60.3802 20.6526 60.3802V60.3802V31.9357H1V40.7276Z" fill="#278EFF" stroke="#278EFF" stroke-width="0.805851"/>
<rect x="20.6526" y="1.36963" width="113.42" height="59.0106" fill="#278EFF"/>
<rect x="20.6526" y="1.36963" width="113.42" height="59.0106" stroke="#278EFF" stroke-width="0.805851"/>
<path d="M39.7916 26.8085L36.111 40.875H33.7287L30.5165 30.034H30.463L27.2642 40.875H24.8685L21.2013 26.8085H23.5301L26.1132 37.9305H26.2203L29.3923 26.8085H31.5872L34.7726 37.9305H34.8797L37.4628 26.8085H39.7916ZM45.9985 41.1025C43.2816 41.1025 41.4078 39.4162 41.4078 36.8331C41.4078 34.3704 43.121 32.8179 46.3465 32.8045H50.0538V31.3724C50.0538 29.5254 48.9831 28.5083 47.0826 28.5083C45.2758 28.5083 44.2452 29.4318 44.1114 30.8371H41.9432C42.0904 28.3744 43.7634 26.581 47.1629 26.581C50.1609 26.581 52.3425 28.2138 52.3425 31.1717V40.875H50.1341V39.1217H50.0672C49.3579 40.2593 48.073 41.1025 45.9985 41.1025ZM46.6142 39.1886C48.5816 39.1886 50.0538 37.9573 50.0538 36.204V34.5712H46.5205C44.5932 34.5712 43.7634 35.4813 43.7634 36.7528C43.7634 38.4124 45.1419 39.1886 46.6142 39.1886ZM55.9931 23.4224C55.9931 22.5926 56.6489 21.9502 57.4653 21.9502C58.2817 21.9502 58.9509 22.5926 58.9509 23.4224C58.9509 24.2388 58.2817 24.8812 57.4653 24.8812C56.6489 24.8812 55.9931 24.2388 55.9931 23.4224ZM56.3143 40.875V26.8085H58.6163V40.875H56.3143ZM63.5919 26.8085V23.3019H65.8806V26.8085H68.6644V28.7358H65.8806V36.9669C65.8806 38.6533 66.4427 39.0816 68.1692 39.0816C68.3967 39.0816 68.5707 39.0816 68.7581 39.0548V40.9018C68.5573 40.9419 68.0755 40.9955 67.5937 40.9955C64.2611 40.9955 63.5785 39.7106 63.5785 36.9401V28.7358H61.6914V26.8085H63.5919ZM94.248 26.8085L90.5675 40.875H88.1851L84.973 30.034H84.9194L81.7207 40.875H79.325L75.6578 26.8085H77.9866L80.5697 37.9305H80.6767L83.8487 26.8085H86.0437L89.2291 37.9305H89.3361L91.9192 26.8085H94.248ZM96.7342 40.875V21.6423H99.0363V28.6689H99.1032C99.6251 27.7722 100.923 26.581 103.199 26.581C106.103 26.581 108.244 28.428 108.244 31.8542V40.875H105.942V32.2424C105.942 29.8734 104.564 28.6689 102.503 28.6689C100.08 28.6689 99.0363 30.382 99.0363 32.3093V40.875H96.7342ZM115.79 41.1025C113.073 41.1025 111.199 39.4162 111.199 36.8331C111.199 34.3704 112.912 32.8179 116.138 32.8045H119.845V31.3724C119.845 29.5254 118.774 28.5083 116.874 28.5083C115.067 28.5083 114.036 29.4318 113.903 30.8371H111.734C111.882 28.3744 113.555 26.581 116.954 26.581C119.952 26.581 122.134 28.2138 122.134 31.1717V40.875H119.925V39.1217H119.858C119.149 40.2593 117.864 41.1025 115.79 41.1025ZM116.405 39.1886C118.373 39.1886 119.845 37.9573 119.845 36.204V34.5712H116.312C114.384 34.5712 113.555 35.4813 113.555 36.7528C113.555 38.4124 114.933 39.1886 116.405 39.1886ZM126.828 26.8085V23.3019H129.117V26.8085H131.901V28.7358H129.117V36.9669C129.117 38.6533 129.679 39.0816 131.406 39.0816C131.633 39.0816 131.807 39.0816 131.994 39.0548V40.9018C131.794 40.9419 131.312 40.9955 130.83 40.9955C127.497 40.9955 126.815 39.7106 126.815 36.9401V28.7358H124.928V26.8085H126.828Z" fill="white"/>
<path d="M153.725 21.0223C153.725 10.1684 144.926 1.36963 134.072 1.36963V1.36963V29.8142H153.725V21.0223Z" fill="#278EFF" stroke="#278EFF" stroke-width="0.805851"/>
<rect width="19.6526" height="2.1217" transform="matrix(-1 0 0 1 153.725 29.8142)" fill="#278EFF" stroke="#278EFF" stroke-width="0.805851"/>
<path d="M134.072 31.9359V60.3802C138.832 60.3802 143.196 58.6878 146.597 55.8724C149.989 58.1325 155.428 60.2822 162 59.0873C160.19 58.3114 153.208 53.657 153.467 44.348C153.436 44.3903 153.401 44.4297 153.368 44.4701C153.602 43.2586 153.726 42.0076 153.726 40.7279V31.9359H134.072Z" fill="#278EFF"/>
<path d="M134.072 31.9359H133.669V31.533H134.072V31.9359ZM134.072 60.3802V60.7832H133.669V60.3802H134.072ZM146.597 55.8724L146.34 55.5621L146.571 55.3709L146.82 55.5371L146.597 55.8724ZM162 59.0873L162.159 58.7169L163.389 59.2443L162.072 59.4837L162 59.0873ZM153.467 44.348L153.141 44.111L153.906 43.0595L153.87 44.3592L153.467 44.348ZM153.368 44.4701L153.679 44.7263L152.973 44.3938L153.368 44.4701ZM153.726 31.9359V31.533H154.129V31.9359H153.726ZM134.072 31.9359H134.475V60.3802H134.072H133.669V31.9359H134.072ZM134.072 60.3802V59.9773C138.735 59.9773 143.009 58.3199 146.34 55.5621L146.597 55.8724L146.854 56.1828C143.383 59.0558 138.929 60.7832 134.072 60.7832V60.3802ZM146.597 55.8724L146.82 55.5371C150.15 57.7556 155.484 59.8625 161.928 58.6909L162 59.0873L162.072 59.4837C155.371 60.702 149.828 58.5094 146.373 56.2078L146.597 55.8724ZM162 59.0873L161.841 59.4576C160.874 59.0432 158.623 57.6446 156.643 55.1693C154.655 52.6841 152.932 49.1026 153.064 44.3368L153.467 44.348L153.87 44.3592C153.743 48.9025 155.382 52.3027 157.272 54.6659C159.171 57.039 161.315 58.3555 162.159 58.7169L162 59.0873ZM153.467 44.348L153.793 44.585C153.752 44.6404 153.702 44.699 153.679 44.7263L153.368 44.4701L153.057 44.2138C153.101 44.1604 153.12 44.1401 153.141 44.111L153.467 44.348ZM153.368 44.4701L152.973 44.3938C153.201 43.207 153.323 41.9816 153.323 40.7279H153.726H154.129C154.129 42.0337 154.002 43.3102 153.764 44.5464L153.368 44.4701ZM153.726 40.7279H153.323V31.9359H153.726H154.129V40.7279H153.726ZM153.726 31.9359V32.3388H134.072V31.9359V31.533H153.726V31.9359Z" fill="#278EFF"/>
</svg>
