<svg width="322" height="61" viewBox="0 0 322 61" fill="none" xmlns="http://www.w3.org/2000/svg">
<path d="M10.2751 20.6341C10.2751 9.78024 19.0739 0.981445 29.9278 0.981445V0.981445V29.426H10.2751V20.6341Z" fill="#26252A" stroke="#26252A" stroke-width="0.805851"/>
<rect x="10.2751" y="29.4263" width="19.6526" height="2.1217" fill="#26252A" stroke="#26252A" stroke-width="0.805851"/>
<path d="M29.9277 31.5479V59.9922C25.1681 59.9922 20.8039 58.2997 17.4033 55.4844C14.011 57.7444 8.57222 59.8942 2 58.6992C3.81027 57.9233 10.7918 53.2689 10.5332 43.96C10.564 44.0022 10.5985 44.0416 10.6318 44.082C10.3982 42.8705 10.2744 41.6196 10.2744 40.3398V31.5479H29.9277Z" fill="#26252A"/>
<path d="M29.9277 31.5479H30.3307V31.1449H29.9277V31.5479ZM29.9277 59.9922V60.3951H30.3307V59.9922H29.9277ZM17.4033 55.4844L17.6603 55.174L17.4294 54.9829L17.1799 55.1491L17.4033 55.4844ZM2 58.6992L1.84127 58.3289L0.610954 58.8562L1.92792 59.0956L2 58.6992ZM10.5332 43.96L10.8591 43.723L10.0943 42.6715L10.1304 43.9711L10.5332 43.96ZM10.6318 44.082L10.3209 44.3383L11.0275 44.0058L10.6318 44.082ZM10.2744 40.3398L9.87149 40.3398L9.87149 40.3398L10.2744 40.3398ZM10.2744 31.5479V31.1449H9.87149V31.5479H10.2744ZM29.9277 31.5479H29.5248V59.9922H29.9277H30.3307V31.5479H29.9277ZM29.9277 59.9922V59.5893C25.2654 59.5893 20.9913 57.9317 17.6603 55.174L17.4033 55.4844L17.1464 55.7947C20.6165 58.6676 25.0709 60.3951 29.9277 60.3951V59.9922ZM17.4033 55.4844L17.1799 55.1491C13.8499 57.3676 8.51588 59.4744 2.07208 58.3028L2 58.6992L1.92792 59.0956C8.62856 60.3139 14.172 58.1213 17.6267 55.8197L17.4033 55.4844ZM2 58.6992L2.15873 59.0696C3.12558 58.6552 5.37683 57.2565 7.35705 54.7812C9.34519 52.296 11.0684 48.7145 10.936 43.9488L10.5332 43.96L10.1304 43.9711C10.2566 48.5144 8.61833 51.9146 6.72779 54.2778C4.82933 56.6509 2.68469 57.9674 1.84127 58.3289L2 58.6992ZM10.5332 43.96L10.2073 44.197C10.2477 44.2524 10.2983 44.3109 10.3209 44.3383L10.6318 44.082L10.9428 43.8258C10.8988 43.7724 10.8803 43.7521 10.8591 43.723L10.5332 43.96ZM10.6318 44.082L11.0275 44.0058C10.7986 42.8189 10.6773 41.5935 10.6773 40.3398L10.2744 40.3398L9.87149 40.3398C9.87149 41.6456 9.99785 42.9221 10.2362 44.1583L10.6318 44.082ZM10.2744 40.3398H10.6773V31.5479H10.2744H9.87149V40.3398H10.2744ZM10.2744 31.5479V31.9508H29.9277V31.5479V31.1449H10.2744V31.5479Z" fill="#26252A"/>
<rect x="29.9277" y="0.981445" width="271.42" height="59.0106" fill="#26252A"/>
<rect x="29.9277" y="0.981445" width="271.42" height="59.0106" stroke="#26252A" stroke-width="0.805851"/>
<path d="M42.696 26.4203C42.5621 26.8754 37.6904 40.5404 37.677 40.5537L37.3157 41.5308C36.2182 44.5154 34.8396 45.4255 32.4707 45.4255C32.0424 45.4255 31.5606 45.3853 31.1724 45.305V43.4313C31.4 43.458 31.8416 43.4848 32.1896 43.4848C33.7957 43.4848 34.5586 42.9361 34.9601 41.4505L35.1742 40.6876L29.9947 26.4203H32.551L36.352 37.9305H36.4323L40.2467 26.4203H42.696ZM50.1476 26.1928C54.0825 26.1928 56.1704 29.0436 56.1704 32.8045V34.0625C56.1704 37.877 54.0959 40.7143 50.1476 40.7143C46.1994 40.7143 44.0981 37.877 44.0981 34.0625V32.8045C44.0981 29.0436 46.2127 26.1928 50.1476 26.1928ZM50.1476 28.1602C47.7251 28.1602 46.4001 30.0072 46.4001 32.8848V33.9822C46.4001 36.8464 47.7251 38.7201 50.1476 38.7201C52.5567 38.7201 53.8683 36.8598 53.8683 33.9822V32.8848C53.8683 30.0072 52.5567 28.1602 50.1476 28.1602ZM76.1595 26.4203V40.4868H73.8709V38.6398H73.7772C73.282 39.7507 71.957 40.7143 69.7085 40.7143C66.8042 40.7143 64.7296 39.0547 64.7296 35.8292V26.4203H67.0451V35.1734C67.0451 37.7967 68.5574 38.6398 70.4044 38.6398C72.4254 38.6398 73.8441 37.3684 73.8441 35.1333V26.4203H76.1595ZM85.5084 40.4868V21.2541H87.8105V28.2807H87.8774C88.3994 27.384 89.6976 26.1928 91.9729 26.1928C94.8772 26.1928 97.0186 28.0398 97.0186 31.4661V40.4868H94.7166V31.8542C94.7166 29.4852 93.338 28.2807 91.2769 28.2807C88.8544 28.2807 87.8105 29.9938 87.8105 31.9211V40.4868H85.5084ZM100.589 23.0342C100.589 22.2044 101.245 21.562 102.061 21.562C102.878 21.562 103.547 22.2044 103.547 23.0342C103.547 23.8506 102.878 24.493 102.061 24.493C101.245 24.493 100.589 23.8506 100.589 23.0342ZM100.91 40.4868V26.4203H103.212V40.4868H100.91ZM108.188 26.4203V22.9137H110.476V26.4203H113.26V28.3476H110.476V36.5787C110.476 38.2651 111.039 38.6934 112.765 38.6934C112.993 38.6934 113.167 38.6934 113.354 38.6666V40.5136C113.153 40.5537 112.671 40.6073 112.19 40.6073C108.857 40.6073 108.174 39.3224 108.174 36.5519V28.3476H106.287V26.4203H108.188ZM122.636 26.4203V22.9137H124.925V26.4203H127.708V28.3476H124.925V36.5787C124.925 38.2651 125.487 38.6934 127.213 38.6934C127.441 38.6934 127.615 38.6934 127.802 38.6666V40.5136C127.601 40.5537 127.12 40.6073 126.638 40.6073C123.305 40.6073 122.623 39.3224 122.623 36.5519V28.3476H120.735V26.4203H122.636ZM131.158 40.4868V21.2541H133.46V28.2807H133.527C134.049 27.384 135.347 26.1928 137.623 26.1928C140.527 26.1928 142.668 28.0398 142.668 31.4661V40.4868H140.366V31.8542C140.366 29.4852 138.988 28.2807 136.927 28.2807C134.504 28.2807 133.46 29.9938 133.46 31.9211V40.4868H131.158ZM151.766 40.7143C148.099 40.7143 145.864 38.1312 145.864 34.1295V32.5502C145.864 28.8428 147.965 26.1928 151.659 26.1928C155.34 26.1928 157.454 28.8428 157.454 32.7108V34.0224H148.166V34.2767C148.166 36.9535 149.531 38.7871 151.82 38.7871C153.453 38.7871 154.523 37.9706 154.978 36.659H157.267C156.732 38.9878 154.871 40.7143 151.766 40.7143ZM148.166 32.162H155.152V32.1219C155.152 29.8868 153.774 28.1201 151.673 28.1201C149.531 28.1201 148.166 29.9001 148.166 32.1219V32.162ZM171.635 43.7123C173.857 43.7123 175.302 42.4141 175.302 40.2058V38.1312H175.235C174.673 39.3492 173.134 40.353 171.22 40.353C167.941 40.353 165.599 38.0509 165.599 33.835V32.6706C165.599 28.535 167.914 26.2062 171.22 26.2062C173.134 26.2062 174.66 27.21 175.316 28.4011H175.382V26.4203H177.604V40.2325C177.604 43.8328 174.807 45.6396 171.622 45.6396C168.048 45.6396 166.228 43.8729 165.907 41.5308H168.262C168.517 42.6684 169.708 43.7123 171.635 43.7123ZM171.662 28.187C169.293 28.187 167.901 29.8734 167.901 32.8446V33.7146C167.901 36.6323 169.293 38.3855 171.662 38.3855C173.964 38.3855 175.302 36.6189 175.302 33.7146V32.8446C175.302 29.9938 173.883 28.187 171.662 28.187ZM192.818 26.4203C192.685 26.8754 187.813 40.5404 187.8 40.5537L187.438 41.5308C186.341 44.5154 184.962 45.4255 182.593 45.4255C182.165 45.4255 181.683 45.3853 181.295 45.305V43.4313C181.522 43.458 181.964 43.4848 182.312 43.4848C183.918 43.4848 184.681 42.9361 185.083 41.4505L185.297 40.6876L180.117 26.4203H182.673L186.475 37.9305H186.555L190.369 26.4203H192.818ZM195.211 40.4868V26.4203H197.5V28.1469H197.62C198.075 27.1832 199.32 26.1928 201.18 26.1928C203.375 26.1928 204.687 27.0761 205.236 28.4547H205.343C205.878 27.2501 207.364 26.1928 209.652 26.1928C212.623 26.1928 214.377 28.0264 214.377 30.9173V40.4868H212.088V31.3858C212.088 29.5923 211.058 28.2673 209.05 28.2673C207.056 28.2673 205.945 29.6458 205.945 31.5999V40.4868H203.656V31.5999C203.656 29.4451 202.505 28.2673 200.591 28.2673C198.865 28.2673 197.513 29.4451 197.513 31.5731V40.4868H195.211ZM224.515 26.4203V22.9137H226.804V26.4203H229.588V28.3476H226.804V36.5787C226.804 38.2651 227.366 38.6934 229.093 38.6934C229.32 38.6934 229.494 38.6934 229.682 38.6666V40.5136C229.481 40.5537 228.999 40.6073 228.517 40.6073C225.185 40.6073 224.502 39.3224 224.502 36.5519V28.3476H222.615V26.4203H224.515ZM238.19 26.1928C242.125 26.1928 244.213 29.0436 244.213 32.8045V34.0625C244.213 37.877 242.139 40.7143 238.19 40.7143C234.242 40.7143 232.141 37.877 232.141 34.0625V32.8045C232.141 29.0436 234.256 26.1928 238.19 26.1928ZM238.19 28.1602C235.768 28.1602 234.443 30.0072 234.443 32.8848V33.9822C234.443 36.8464 235.768 38.7201 238.19 38.7201C240.6 38.7201 241.911 36.8598 241.911 33.9822V32.8848C241.911 30.0072 240.6 28.1602 238.19 28.1602ZM252.695 26.2062C254.556 26.2062 256.028 27.1297 256.737 28.3744H256.804V21.2541H259.106V40.4868H256.898V38.3722H256.844C256.055 39.8176 254.583 40.701 252.695 40.701C249.028 40.701 247.074 38.0108 247.074 34.0893V32.8178C247.074 28.99 249.149 26.2062 252.695 26.2062ZM253.017 28.2138C250.929 28.2138 249.39 29.7663 249.39 32.8981V34.009C249.39 37.1408 250.929 38.6934 253.057 38.6934C255.412 38.6934 256.844 37.007 256.844 34.0224V32.8981C256.844 30.0608 255.386 28.2138 253.017 28.2138ZM266.893 40.7143C264.176 40.7143 262.302 39.028 262.302 36.4449C262.302 33.9822 264.015 32.4297 267.241 32.4163H270.948V30.9842C270.948 29.1373 269.877 28.1201 267.977 28.1201C266.17 28.1201 265.139 29.0436 265.005 30.4489H262.837C262.984 27.9862 264.657 26.1928 268.057 26.1928C271.055 26.1928 273.237 27.8256 273.237 30.7835V40.4868H271.028V38.7335H270.961C270.252 39.8712 268.967 40.7143 266.893 40.7143ZM267.508 38.8004C269.476 38.8004 270.948 37.5691 270.948 35.8158V34.183H267.415C265.487 34.183 264.657 35.0931 264.657 36.3646C264.657 38.0242 266.036 38.8004 267.508 38.8004ZM287.768 26.4203C287.634 26.8754 282.763 40.5404 282.749 40.5537L282.388 41.5308C281.29 44.5154 279.912 45.4255 277.543 45.4255C277.115 45.4255 276.633 45.3853 276.245 45.305V43.4313C276.472 43.458 276.914 43.4848 277.262 43.4848C278.868 43.4848 279.631 42.9361 280.032 41.4505L280.246 40.6876L275.067 26.4203H277.623L281.424 37.9305H281.505L285.319 26.4203H287.768ZM289.505 27.0092C289.492 23.0208 292.503 21.7895 295.032 21.7895C297.776 21.7895 300.399 23.2483 300.399 26.3534C300.399 28.5751 299.074 29.686 297.816 30.7032C296.277 31.9345 295.715 32.3896 295.715 33.9421V34.7585H293.467L293.453 33.5941C293.44 31.6936 294.711 30.5827 296.01 29.5388C297.254 28.535 298.044 27.8926 298.044 26.4872C298.044 24.5332 296.545 23.7569 294.939 23.7569C292.771 23.7569 291.713 25.1756 291.713 27.0092H289.505ZM293.105 39.2287C293.105 38.3722 293.801 37.703 294.644 37.703C295.501 37.703 296.183 38.3722 296.183 39.2287C296.183 40.0719 295.501 40.7411 294.644 40.7411C293.801 40.7411 293.105 40.0719 293.105 39.2287Z" fill="white"/>
<path d="M321 20.6341C321 9.78024 312.201 0.981445 301.347 0.981445V0.981445V29.426H321V20.6341Z" fill="#26252A" stroke="#26252A" stroke-width="0.805851"/>
<rect width="19.6526" height="2.12144" transform="matrix(-1 0 0 1 321 29.426)" fill="#26252A" stroke="#26252A" stroke-width="0.805851"/>
<path d="M321 40.3395C321 51.1934 312.201 59.9922 301.347 59.9922V59.9922V31.5476H321V40.3395Z" fill="#26252A" stroke="#26252A" stroke-width="0.805851"/>
</svg>
