<svg width="133" height="61" viewBox="0 0 133 61" fill="none" xmlns="http://www.w3.org/2000/svg">
<path d="M1 21.0223C1 10.1684 9.79878 1.36963 20.6526 1.36963V1.36963V29.8142H1V21.0223Z" fill="#278EFF" stroke="#278EFF" stroke-width="0.805851"/>
<rect x="1" y="29.8143" width="19.6526" height="2.12144" fill="#278EFF" stroke="#278EFF" stroke-width="0.805851"/>
<path d="M1 40.7276C1 51.5815 9.79878 60.3802 20.6526 60.3802V60.3802V31.9357H1V40.7276Z" fill="#278EFF" stroke="#278EFF" stroke-width="0.805851"/>
<rect x="20.6526" y="1.36963" width="91.6945" height="59.0106" fill="#278EFF"/>
<rect x="20.6526" y="1.36963" width="91.6945" height="59.0106" stroke="#278EFF" stroke-width="0.805851"/>
<path d="M28.1877 26.581C32.1226 26.581 34.2105 29.4318 34.2105 33.1926V34.4507C34.2105 38.2651 32.136 41.1025 28.1877 41.1025C24.2395 41.1025 22.1382 38.2651 22.1382 34.4507V33.1926C22.1382 29.4318 24.2529 26.581 28.1877 26.581ZM28.1877 28.5484C25.7652 28.5484 24.4402 30.3954 24.4402 33.2729V34.3704C24.4402 37.2346 25.7652 39.1083 28.1877 39.1083C30.5968 39.1083 31.9085 37.248 31.9085 34.3704V33.2729C31.9085 30.3954 30.5968 28.5484 28.1877 28.5484ZM37.6737 40.875V21.6423H39.9757V28.6689H40.0427C40.5646 27.7722 41.8629 26.581 44.1381 26.581C47.0424 26.581 49.1839 28.428 49.1839 31.8542V40.875H46.8818V32.2424C46.8818 29.8734 45.5033 28.6689 43.4422 28.6689C41.0197 28.6689 39.9757 30.382 39.9757 32.3093V40.875H37.6737ZM57.7164 30.8371C57.7164 27.8658 60.2192 26.581 62.9227 26.581C66.2285 26.581 67.9283 28.4681 67.9283 30.7969H65.7869C65.7066 29.7262 65.0374 28.4681 62.8424 28.4681C61.1694 28.4681 59.9649 29.2042 59.9649 30.5962C59.9649 32.1755 61.8252 32.5101 63.4313 32.8045C66.0679 33.2729 68.2897 33.9823 68.2897 36.726C68.2897 39.5232 66.0278 41.1025 62.722 41.1025C59.6303 41.1025 57.4755 39.6169 57.4755 37.0874H59.724C59.9247 38.3722 61.0222 39.2154 62.896 39.2154C65.0508 39.2154 66.0278 38.1982 66.0278 37.007C66.0278 35.4144 64.4619 35.1065 62.4944 34.7184C59.8712 34.183 57.7164 33.38 57.7164 30.8371ZM71.4718 40.875V21.6423H73.7739V28.6689H73.8408C74.3628 27.7722 75.661 26.581 77.9363 26.581C80.8406 26.581 82.982 28.428 82.982 31.8542V40.875H80.68V32.2424C80.68 29.8734 79.3014 28.6689 77.2403 28.6689C74.8178 28.6689 73.7739 30.382 73.7739 32.3093V40.875H71.4718ZM91.7051 30.8906H90.1392L90.2998 27.6517L87.5828 29.4451L86.7798 28.0398L89.6306 26.5944L86.7798 25.1355L87.5828 23.7168L90.2998 25.5504L90.1258 22.2714H91.7185L91.5311 25.537L94.248 23.7168L95.0511 25.1221L92.1869 26.5944L95.0511 28.0398L94.248 29.4451L91.5311 27.6517L91.7051 30.8906ZM99.933 26.8085V23.3019H102.222V26.8085H105.005V28.7358H102.222V36.9669C102.222 38.6533 102.784 39.0816 104.51 39.0816C104.738 39.0816 104.912 39.0816 105.099 39.0548V40.9018C104.898 40.9419 104.417 40.9955 103.935 40.9955C100.602 40.9955 99.9196 39.7106 99.9196 36.9401V28.7358H98.0325V26.8085H99.933Z" fill="white"/>
<path d="M132 21.0223C132 10.1684 123.201 1.36963 112.347 1.36963V1.36963V29.8142H132V21.0223Z" fill="#278EFF" stroke="#278EFF" stroke-width="0.805851"/>
<rect width="19.6526" height="2.1217" transform="matrix(-1 0 0 1 132 29.8143)" fill="#278EFF" stroke="#278EFF" stroke-width="0.805851"/>
<path d="M112.347 31.9359V60.3802C123.201 60.3801 132 51.5817 132 40.7279V31.9359H112.347Z" fill="#278EFF"/>
<path d="M112.347 31.9359H111.944V31.533H112.347V31.9359ZM112.347 60.3802L112.347 60.7832L111.944 60.7832V60.3802H112.347ZM132 31.9359V31.533H132.403V31.9359H132ZM112.347 31.9359H112.75V60.3802H112.347H111.944V31.9359H112.347ZM112.347 60.3802L112.347 59.9773C122.979 59.9772 131.597 51.3591 131.597 40.7279H132H132.403C132.403 51.8042 123.424 60.783 112.347 60.7832L112.347 60.3802ZM132 40.7279H131.597V31.9359H132H132.403V40.7279H132ZM132 31.9359V32.3388H112.347V31.9359V31.533H132V31.9359Z" fill="#278EFF"/>
</svg>
