<svg version="1.1" id="Layer_1" xmlns="http://www.w3.org/2000/svg" xmlns:xlink="http://www.w3.org/1999/xlink" x="0px" y="0px"
	 width="100%" viewBox="0 0 404 250" enable-background="new 0 0 404 250" xml:space="preserve">
<path fill="#000000" opacity="1.000000" stroke="none" 
	d="
M405.000000,2.000000 
	C405.000000,84.965088 405.000000,167.930176 405.000000,250.947632 
	C270.424896,250.947632 135.849792,250.947632 1.137336,250.947632 
	C1.137336,167.666809 1.137336,84.333443 1.137336,1.000000 
	C46.434200,1.000000 91.748444,1.000000 137.921570,1.130546 
	C142.255569,1.503167 145.730576,1.954864 149.205795,1.956635 
	C234.470520,2.000087 319.735260,1.995771 405.000000,2.000000 
M150.424774,209.015457 
	C155.908707,209.349701 161.391800,209.957214 166.876694,209.973785 
	C202.204803,210.080536 237.534119,210.198059 272.861145,209.988495 
	C282.831940,209.929352 292.831726,209.124390 302.756866,208.079071 
	C329.499084,205.262589 351.489777,193.665726 368.793884,172.751144 
	C407.891724,125.495636 395.203369,51.100521 342.444336,19.975718 
	C325.420044,9.932370 306.557922,6.538942 287.271271,6.107749 
	C253.627884,5.355583 219.964584,5.249894 186.310684,5.329221 
	C172.172668,5.362546 157.999634,6.118766 143.910294,7.332776 
	C125.667572,8.904661 108.414413,14.167564 93.977608,25.837759 
	C57.706623,55.157928 47.059425,93.042107 57.915924,137.635193 
	C59.018436,142.163773 58.286896,144.937088 54.513065,147.880997 
	C42.724514,157.076996 38.575222,169.630447 41.630474,183.930923 
	C44.581524,197.743637 53.603687,206.850540 67.281494,210.622925 
	C80.045586,214.143311 91.312599,210.612549 101.044273,201.881363 
	C103.778038,199.428635 106.312759,197.628265 110.354172,199.538879 
	C122.726746,205.388168 135.996292,207.750366 150.424774,209.015457 
M41.797119,226.213425 
	C46.410164,218.880066 45.936871,209.744812 40.674408,204.542847 
	C35.636578,199.562958 26.134909,198.713440 20.292898,202.720596 
	C12.945064,207.760635 11.338963,219.247787 17.006643,226.224701 
	C22.964622,233.559021 33.745579,233.801407 41.797119,226.213425 
z"/>
<path fill="#141416" opacity="1.000000" stroke="none" 
	d="
M405.000000,1.500000 
	C319.735260,1.995771 234.470520,2.000087 149.205795,1.956635 
	C145.730576,1.954864 142.255569,1.503167 138.390228,1.130546 
	C227.000000,1.000000 316.000000,1.000000 405.000000,1.500000 
z"/>
<path fill="#262629" opacity="1.000000" stroke="none" 
	d="
M149.972809,208.973663 
	C135.996292,207.750366 122.726746,205.388168 110.354172,199.538879 
	C106.312759,197.628265 103.778038,199.428635 101.044273,201.881363 
	C91.312599,210.612549 80.045586,214.143311 67.281494,210.622925 
	C53.603687,206.850540 44.581524,197.743637 41.630474,183.930923 
	C38.575222,169.630447 42.724514,157.076996 54.513065,147.880997 
	C58.286896,144.937088 59.018436,142.163773 57.915924,137.635193 
	C47.059425,93.042107 57.706623,55.157928 93.977608,25.837759 
	C108.414413,14.167564 125.667572,8.904661 143.910294,7.332776 
	C157.999634,6.118766 172.172668,5.362546 186.310684,5.329221 
	C219.964584,5.249894 253.627884,5.355583 287.271271,6.107749 
	C306.557922,6.538942 325.420044,9.932370 342.444336,19.975718 
	C395.203369,51.100521 407.891724,125.495636 368.793884,172.751144 
	C351.489777,193.665726 329.499084,205.262589 302.756866,208.079071 
	C292.831726,209.124390 282.831940,209.929352 272.861145,209.988495 
	C237.534119,210.198059 202.204803,210.080536 166.876694,209.973785 
	C161.391800,209.957214 155.908707,209.349701 149.972809,208.973663 
M317.324371,90.183105 
	C316.696167,89.640633 316.095093,89.062508 315.435669,88.561058 
	C305.620270,81.096649 292.788361,81.359039 283.730164,89.198257 
	C274.774811,96.948479 272.393494,109.539673 277.902344,120.012627 
	C283.448059,130.555634 295.542755,135.607590 307.251984,132.272003 
	C324.883575,127.249290 330.502838,105.136787 317.324371,90.183105 
M230.160507,132.874985 
	C245.480438,130.995712 255.683075,115.741859 249.473572,98.600700 
	C244.968643,86.164948 230.659302,80.171280 218.100449,84.624931 
	C205.523926,89.084846 198.623062,102.580269 202.424728,115.280609 
	C205.970230,127.125198 215.013504,133.068878 230.160507,132.874985 
M144.420273,84.737411 
	C131.042038,90.421761 124.816193,103.480568 129.294525,116.463890 
	C133.628723,129.029358 146.921097,135.882004 159.946152,132.265823 
	C172.910965,128.666367 180.765915,114.539680 177.046143,101.512451 
	C173.074890,87.604515 159.713837,80.464691 144.420273,84.737411 
z"/>
<path fill="#242427" opacity="1.000000" stroke="none" 
	d="
M41.559319,226.492401 
	C33.745579,233.801407 22.964622,233.559021 17.006643,226.224701 
	C11.338963,219.247787 12.945064,207.760635 20.292898,202.720596 
	C26.134909,198.713440 35.636578,199.562958 40.674408,204.542847 
	C45.936871,209.744812 46.410164,218.880066 41.559319,226.492401 
z"/>
<path fill="#7F7F80" opacity="1.000000" stroke="none" 
	d="
M317.572937,90.431206 
	C330.502838,105.136787 324.883575,127.249290 307.251984,132.272003 
	C295.542755,135.607590 283.448059,130.555634 277.902344,120.012627 
	C272.393494,109.539673 274.774811,96.948479 283.730164,89.198257 
	C292.788361,81.359039 305.620270,81.096649 315.435669,88.561058 
	C316.095093,89.062508 316.696167,89.640633 317.572937,90.431206 
z"/>
<path fill="#737375" opacity="1.000000" stroke="none" 
	d="
M229.706924,132.894287 
	C215.013504,133.068878 205.970230,127.125198 202.424728,115.280609 
	C198.623062,102.580269 205.523926,89.084846 218.100449,84.624931 
	C230.659302,80.171280 244.968643,86.164948 249.473572,98.600700 
	C255.683075,115.741859 245.480438,130.995712 229.706924,132.894287 
z"/>
<path fill="#525254" opacity="1.000000" stroke="none" 
	d="
M144.797516,84.609283 
	C159.713837,80.464691 173.074890,87.604515 177.046143,101.512451 
	C180.765915,114.539680 172.910965,128.666367 159.946152,132.265823 
	C146.921097,135.882004 133.628723,129.029358 129.294525,116.463890 
	C124.816193,103.480568 131.042038,90.421761 144.797516,84.609283 
z"/>
</svg>